#N canvas 537 201 310 326 12;
#X obj 2 275 throw~;
#X obj 51 205 r vlow-router-\$0;
#X msg 51 239 set vlow-pipe-\$1;
#X obj 70 168 delread~ vlow-echo 250;
#X floatatom 71 143 5 0 0 0 - - -, f 5;
#X obj 71 116 r delay-\$0;
#X obj 56 80 r decay-\$0;
#X obj 67 12 catch~ vlow-pipe-\$0;
#X obj 68 52 delwrite~ vlow-echo 5000;
#X obj 1 115 *~ 0.6;
#X connect 1 0 2 0;
#X connect 2 0 0 0;
#X connect 3 0 9 0;
#X connect 4 0 3 0;
#X connect 5 0 4 0;
#X connect 6 0 9 1;
#X connect 7 0 8 0;
#X connect 9 0 0 0;
#X connect 9 0 8 0;
