#N canvas 308 227 213 204 10;
#X obj 14 159 throw~;
#X obj 87 89 r vlow-router-\$0;
#X msg 87 123 set vlow-pipe-\$1;
#X obj 14 16 catch~ vlow-pipe-\$0;
#X obj 35 43 r killed-\$0;
#X obj 14 110 mix~;
#X floatatom 35 67 5 0 0 0 - - -, f 5;
#X obj 35 86 round;
#X connect 1 0 2 0;
#X connect 2 0 0 0;
#X connect 3 0 5 0;
#X connect 4 0 6 0;
#X connect 5 0 0 0;
#X connect 6 0 7 0;
#X connect 7 0 5 2;
