#N canvas 282 154 215 263 10;
#X obj 11 17 inlet~;
#X obj 64 17 inlet~;
#X obj 136 18 inlet;
#X obj 12 217 outlet~;
#X obj 136 87 expr 1-$f1;
#X floatatom 136 49 5 0 1 0 - - -;
#X floatatom 139 120 5 0 0 0 - - -;
#X obj 11 142 *~;
#X text 62 0 wet;
#X text 11 1 dry;
#X obj 67 90 *~;
#X connect 0 0 7 0;
#X connect 1 0 10 0;
#X connect 2 0 5 0;
#X connect 4 0 6 0;
#X connect 5 0 4 0;
#X connect 5 0 10 1;
#X connect 6 0 7 1;
#X connect 7 0 3 0;
#X connect 10 0 3 0;
