#N canvas 660 169 332 261 12;
#X obj 20 9 catch~ vlow-pipe-\$0;
#X obj 194 16 r transpose-\$0;
#X obj 20 201 throw~;
#X obj 79 138 r vlow-router-\$0;
#X msg 79 162 set vlow-pipe-\$1;
#X obj 245 58 r mix-\$0;
#X floatatom 245 82 5 0 1 0 - - -, f 5;
#X obj 80 84 tapeshift;
#X obj 20 138 mix~;
#X floatatom 194 48 5 0 0 0 - - -, f 5;
#X obj 63 34 adc~;
#X obj 129 228 dac~;
#X connect 0 0 7 0;
#X connect 0 0 8 0;
#X connect 1 0 9 0;
#X connect 3 0 4 0;
#X connect 4 0 2 0;
#X connect 5 0 6 0;
#X connect 6 0 8 2;
#X connect 7 0 8 1;
#X connect 8 0 2 0;
#X connect 8 0 11 0;
#X connect 8 0 11 1;
#X connect 9 0 7 1;
#X connect 10 0 7 0;
#X connect 10 0 8 0;
#X connect 10 1 7 0;
#X connect 10 1 8 0;
