#N canvas 555 390 450 300 10;
#X obj 20 13 catch~ vlow-pipe-\$0;
#X obj 20 254 throw~;
#X obj 69 184 r vlow-router-\$0;
#X msg 69 218 set vlow-pipe-\$1;
#X obj 220 12 r mix-\$0;
#X obj 160 62 * -1;
#X obj 160 88 + 1;
#X msg 221 117 wet \$1;
#X msg 156 115 dry \$1;
#X obj 18 154 freeverb~;
#X connect 0 0 9 0;
#X connect 0 0 9 1;
#X connect 2 0 3 0;
#X connect 3 0 1 0;
#X connect 4 0 5 0;
#X connect 4 0 7 0;
#X connect 5 0 6 0;
#X connect 6 0 8 0;
#X connect 7 0 9 0;
#X connect 8 0 9 0;
#X connect 9 0 1 0;
#X connect 9 1 1 0;
