#N canvas 746 336 252 222 10;
#X obj 14 -9 catch~ vlow-pipe-\$0;
#X obj 12 168 throw~;
#X obj 61 98 r vlow-router-\$0;
#X msg 61 132 set vlow-pipe-\$1;
#X obj 164 -8 r level-\$0;
#X obj 18 55 *~ 1;
#X connect 0 0 5 0;
#X connect 2 0 3 0;
#X connect 3 0 1 0;
#X connect 4 0 5 1;
#X connect 5 0 1 0;
